<mxfile host="app.diagrams.net" agent="Mozilla/5.0 (Windows NT 10.0; Win64; x64) AppleWebKit/537.36 (KHTML, like Gecko) Chrome/136.0.0.0 Safari/537.36 Edg/136.0.0.0" version="26.2.14">
  <diagram name="Page-1" id="Swi3_ltpFzbsWivroaSS">
    <mxGraphModel dx="1678" dy="938" grid="1" gridSize="10" guides="1" tooltips="1" connect="1" arrows="1" fold="1" page="1" pageScale="1" pageWidth="850" pageHeight="1100" math="0" shadow="0">
      <root>
        <mxCell id="0" />
        <mxCell id="1" parent="0" />
        <mxCell id="PWWMEfbJv7DCdfxXMW-W-5" style="edgeStyle=orthogonalEdgeStyle;rounded=0;orthogonalLoop=1;jettySize=auto;html=1;" edge="1" parent="1" source="PWWMEfbJv7DCdfxXMW-W-2" target="PWWMEfbJv7DCdfxXMW-W-4">
          <mxGeometry relative="1" as="geometry" />
        </mxCell>
        <mxCell id="PWWMEfbJv7DCdfxXMW-W-2" value="Baslangic&lt;div&gt;a=0,1 , b=1,0&lt;/div&gt;" style="ellipse;whiteSpace=wrap;html=1;" vertex="1" parent="1">
          <mxGeometry x="365" y="70" width="155" height="50" as="geometry" />
        </mxCell>
        <mxCell id="PWWMEfbJv7DCdfxXMW-W-7" style="edgeStyle=orthogonalEdgeStyle;rounded=0;orthogonalLoop=1;jettySize=auto;html=1;entryX=0.5;entryY=0;entryDx=0;entryDy=0;" edge="1" parent="1" source="PWWMEfbJv7DCdfxXMW-W-4" target="PWWMEfbJv7DCdfxXMW-W-6">
          <mxGeometry relative="1" as="geometry" />
        </mxCell>
        <mxCell id="PWWMEfbJv7DCdfxXMW-W-4" value="funksiyani teyin edirik&lt;div&gt;g(X)=exp(x)&lt;/div&gt;" style="rounded=0;whiteSpace=wrap;html=1;" vertex="1" parent="1">
          <mxGeometry x="383" y="190" width="120" height="60" as="geometry" />
        </mxCell>
        <mxCell id="PWWMEfbJv7DCdfxXMW-W-9" style="edgeStyle=orthogonalEdgeStyle;rounded=0;orthogonalLoop=1;jettySize=auto;html=1;" edge="1" parent="1" source="PWWMEfbJv7DCdfxXMW-W-6" target="PWWMEfbJv7DCdfxXMW-W-8">
          <mxGeometry relative="1" as="geometry" />
        </mxCell>
        <mxCell id="PWWMEfbJv7DCdfxXMW-W-6" value="Baslangic yaxinlasma:&lt;div&gt;X0=0,1&lt;/div&gt;" style="rounded=0;whiteSpace=wrap;html=1;" vertex="1" parent="1">
          <mxGeometry x="382.5" y="300" width="120" height="50" as="geometry" />
        </mxCell>
        <mxCell id="PWWMEfbJv7DCdfxXMW-W-11" style="edgeStyle=orthogonalEdgeStyle;rounded=0;orthogonalLoop=1;jettySize=auto;html=1;exitX=1;exitY=0.5;exitDx=0;exitDy=0;entryX=1;entryY=0.5;entryDx=0;entryDy=0;" edge="1" parent="1" source="PWWMEfbJv7DCdfxXMW-W-8" target="PWWMEfbJv7DCdfxXMW-W-10">
          <mxGeometry relative="1" as="geometry">
            <mxPoint x="530" y="560" as="targetPoint" />
            <Array as="points">
              <mxPoint x="630" y="430" />
              <mxPoint x="630" y="550" />
              <mxPoint x="503" y="550" />
            </Array>
          </mxGeometry>
        </mxCell>
        <mxCell id="PWWMEfbJv7DCdfxXMW-W-13" value="Yox&lt;div&gt;&lt;br&gt;&lt;/div&gt;" style="edgeLabel;html=1;align=center;verticalAlign=middle;resizable=0;points=[];" vertex="1" connectable="0" parent="PWWMEfbJv7DCdfxXMW-W-11">
          <mxGeometry x="0.7064" y="-4" relative="1" as="geometry">
            <mxPoint x="4" y="4" as="offset" />
          </mxGeometry>
        </mxCell>
        <mxCell id="PWWMEfbJv7DCdfxXMW-W-8" value="Yeni yaxinlasmanin hesablanmasi&lt;div&gt;Xn+=g(Xn)&lt;/div&gt;" style="rounded=0;whiteSpace=wrap;html=1;" vertex="1" parent="1">
          <mxGeometry x="382.5" y="400" width="120" height="60" as="geometry" />
        </mxCell>
        <mxCell id="PWWMEfbJv7DCdfxXMW-W-16" value="" style="edgeStyle=orthogonalEdgeStyle;rounded=0;orthogonalLoop=1;jettySize=auto;html=1;" edge="1" parent="1" source="PWWMEfbJv7DCdfxXMW-W-10" target="PWWMEfbJv7DCdfxXMW-W-15">
          <mxGeometry relative="1" as="geometry" />
        </mxCell>
        <mxCell id="PWWMEfbJv7DCdfxXMW-W-17" value="He" style="edgeLabel;html=1;align=center;verticalAlign=middle;resizable=0;points=[];" vertex="1" connectable="0" parent="PWWMEfbJv7DCdfxXMW-W-16">
          <mxGeometry x="-0.3087" relative="1" as="geometry">
            <mxPoint as="offset" />
          </mxGeometry>
        </mxCell>
        <mxCell id="PWWMEfbJv7DCdfxXMW-W-10" value="Yaxinlasma sertini yoxlayiriq&lt;div&gt;|Zx+1-Zx|&amp;lt;E(epilson)&lt;/div&gt;" style="rhombus;whiteSpace=wrap;html=1;" vertex="1" parent="1">
          <mxGeometry x="366.75" y="500" width="152.5" height="80" as="geometry" />
        </mxCell>
        <mxCell id="PWWMEfbJv7DCdfxXMW-W-19" value="" style="edgeStyle=orthogonalEdgeStyle;rounded=0;orthogonalLoop=1;jettySize=auto;html=1;" edge="1" parent="1" source="PWWMEfbJv7DCdfxXMW-W-15" target="PWWMEfbJv7DCdfxXMW-W-18">
          <mxGeometry relative="1" as="geometry" />
        </mxCell>
        <mxCell id="PWWMEfbJv7DCdfxXMW-W-15" value="Novbeti iterasiyaya kecilir" style="whiteSpace=wrap;html=1;" vertex="1" parent="1">
          <mxGeometry x="382.5" y="620" width="120" height="60" as="geometry" />
        </mxCell>
        <mxCell id="PWWMEfbJv7DCdfxXMW-W-21" style="edgeStyle=orthogonalEdgeStyle;rounded=0;orthogonalLoop=1;jettySize=auto;html=1;" edge="1" parent="1" source="PWWMEfbJv7DCdfxXMW-W-18" target="PWWMEfbJv7DCdfxXMW-W-20">
          <mxGeometry relative="1" as="geometry" />
        </mxCell>
        <mxCell id="PWWMEfbJv7DCdfxXMW-W-18" value="X" style="shape=parallelogram;perimeter=parallelogramPerimeter;whiteSpace=wrap;html=1;fixedSize=1;" vertex="1" parent="1">
          <mxGeometry x="382.5" y="710" width="120" height="60" as="geometry" />
        </mxCell>
        <mxCell id="PWWMEfbJv7DCdfxXMW-W-20" value="Son" style="ellipse;whiteSpace=wrap;html=1;" vertex="1" parent="1">
          <mxGeometry x="378.75" y="810" width="127.5" height="40" as="geometry" />
        </mxCell>
      </root>
    </mxGraphModel>
  </diagram>
</mxfile>
